# xmcd CD database file generated by Grip 3.2.0
# 
# Track frame offsets:
#       150
#       21065
#       39707
#       61895
#       83852
#       111892
#       141775
# 
# Disc length: 2166 seconds
# 
# Revision: 1
# Processed by: cddbd v1.5.1PL2 Copyright (c) Steve Scherf et al.
# Submitted via: Grip 3.2.0
# 
DISCID=57087407
DTITLE=Richard Johnston - Official Bootleg #1
DYEAR=2003
DGENRE=Blues
TTITLE0=Keep Your Lamp Trimmed and Burning
TTITLE1=Coal Black Mattie
TTITLE2=Do the Romp
TTITLE3=Miss Maebelle
TTITLE4=Done Got Old
TTITLE5=The Shaggy Hound
TTITLE6=Meet Me In the City
EXTD=OTG-001 - Track 1 live at Orpheum Theater, Memphis TN at the 2003 WC Ha
EXTD=ndy \nAwards ceremony - Track 7 recorded Oslo, Norway Jan 2003
EXTT0=
EXTT1=
EXTT2=
EXTT3=
EXTT4=
EXTT5=
EXTT6=
PLAYORDER=
